<svg xmlns="http://www.w3.org/2000/svg" width="144.719" height="33.987" viewBox="0 0 144.719 33.987">
  <g id="Groupe_2686" data-name="Groupe 2686" transform="translate(-886.141 -3375.252)">
    <path id="linkedin" d="M10674-1861.493v-24.2h7.443v24.2Zm26.061,0v-12.772c0-2.966-1.13-5.231-3.722-5.231-1.979,0-2.97,1.6-3.488,2.922a5.091,5.091,0,0,0-.24,1.793v13.288h-7.441v-15.925c0-2.875-.1-5.279-.191-7.356h6.69l.332,3.209h.141a8.279,8.279,0,0,1,7.117-3.725c4.712,0,8.25,3.156,8.25,9.944v13.853ZM10674-1891.181a3.664,3.664,0,0,1,3.722-3.819,3.61,3.61,0,0,1,3.722,3.722,3.527,3.527,0,0,1-3.725,3.678A3.527,3.527,0,0,1,10674-1891.181Z" transform="translate(-9743.002 5270.252)" fill="#dc8d00"/>
    <g id="Groupe_5" data-name="Groupe 5" transform="translate(886.141 3375.252)">
      <path id="Tracé_237" data-name="Tracé 237" d="M975.279,362.42H970.54v16.974h-7.069V362.42H960.13v-5.982h3.341v-3.884a8.41,8.41,0,0,1,.544-3.069,5.962,5.962,0,0,1,2.137-2.835,7.457,7.457,0,0,1,4.428-1.243l5.244.039v5.826h-3.807a1.506,1.506,0,0,0-.971.311,1.635,1.635,0,0,0-.505,1.321v3.535h5.36Z" transform="translate(-960.13 -345.407)" fill="#dc8d00"/>
    </g>
    <g id="Groupe_7" data-name="Groupe 7" transform="translate(989.564 3378.342)">
      <path id="Tracé_321" data-name="Tracé 321" d="M992.565,1374.306q0,3.449-.047,4.3-.19,2.789-.378,4.063a9.955,9.955,0,0,1-.614,2.315,4.632,4.632,0,0,1-1.134,1.8,5.441,5.441,0,0,1-2.882,1.512q-8.978.663-19.136.473-5.953-.1-8.481-.214a28.416,28.416,0,0,1-3.756-.354,5.531,5.531,0,0,1-2.788-1.465,6.423,6.423,0,0,1-1.323-2.6,8.917,8.917,0,0,1-.354-1.465c-.079-.5-.15-1.259-.212-2.268a97.517,97.517,0,0,1,0-12.19l.283-2.315a10.984,10.984,0,0,1,.52-2.268,5.185,5.185,0,0,1,1.228-1.89,6.032,6.032,0,0,1,2.788-1.417,47.975,47.975,0,0,1,5.74-.378q4.559-.141,9.9-.142t9.9.167q4.559.167,5.788.354a5.757,5.757,0,0,1,1.819.709,4.68,4.68,0,0,1,1.394,1.228,8.582,8.582,0,0,1,1.087,2.552,14.337,14.337,0,0,1,.472,2.693q0,.237.142,2.5C992.549,1370.573,992.565,1372.014,992.565,1374.306Zm-19.041,2.315q3.732-1.889,5.292-2.74l-11.1-5.858v11.67Q969.649,1378.611,973.524,1376.62Z" transform="translate(-951.27 -1359.8)" fill="#dc8d00"/>
    </g>
  </g>
</svg>
