<svg id="Groupe_7" data-name="Groupe 7" xmlns="http://www.w3.org/2000/svg" width="41.296" height="29.005" viewBox="0 0 41.296 29.005">
  <path id="Tracé_321" data-name="Tracé 321" d="M992.565,1374.306q0,3.449-.047,4.3-.19,2.789-.378,4.063a9.955,9.955,0,0,1-.614,2.315,4.632,4.632,0,0,1-1.134,1.8,5.441,5.441,0,0,1-2.882,1.512q-8.978.663-19.136.473-5.953-.1-8.481-.214a28.416,28.416,0,0,1-3.756-.354,5.531,5.531,0,0,1-2.788-1.465,6.423,6.423,0,0,1-1.323-2.6,8.917,8.917,0,0,1-.354-1.465c-.079-.5-.15-1.259-.212-2.268a97.517,97.517,0,0,1,0-12.19l.283-2.315a10.984,10.984,0,0,1,.52-2.268,5.185,5.185,0,0,1,1.228-1.89,6.032,6.032,0,0,1,2.788-1.417,47.975,47.975,0,0,1,5.74-.378q4.559-.141,9.9-.142t9.9.167q4.559.167,5.788.354a5.757,5.757,0,0,1,1.819.709,4.68,4.68,0,0,1,1.394,1.228,8.582,8.582,0,0,1,1.087,2.552,14.337,14.337,0,0,1,.472,2.693q0,.237.142,2.5C992.549,1370.573,992.565,1372.014,992.565,1374.306Zm-19.041,2.315q3.732-1.889,5.292-2.74l-11.1-5.858v11.67Q969.649,1378.611,973.524,1376.62Z" transform="translate(-951.27 -1359.8)" fill="#dc8d00"/>
</svg>
