<svg xmlns="http://www.w3.org/2000/svg" xmlns:xlink="http://www.w3.org/1999/xlink" width="255.129" height="37.444" viewBox="0 0 255.129 37.444">
  <defs>
    <linearGradient id="linear-gradient" x1="0.609" y1="0.049" x2="0.269" y2="0.719" gradientUnits="objectBoundingBox">
      <stop offset="0" stop-color="#00a0ff"/>
      <stop offset="0.01" stop-color="#00a1ff"/>
      <stop offset="0.26" stop-color="#00beff"/>
      <stop offset="0.51" stop-color="#00d2ff"/>
      <stop offset="0.76" stop-color="#00dfff"/>
      <stop offset="1" stop-color="#00e3ff"/>
    </linearGradient>
    <linearGradient id="linear-gradient-2" x1="1.077" y1="0.5" x2="-1.306" y2="0.5" gradientUnits="objectBoundingBox">
      <stop offset="0" stop-color="#ffe000"/>
      <stop offset="0.41" stop-color="#ffbd00"/>
      <stop offset="0.78" stop-color="orange"/>
      <stop offset="1" stop-color="#ff9c00"/>
    </linearGradient>
    <linearGradient id="linear-gradient-3" x1="0.862" y1="0.306" x2="-0.502" y2="1.374" gradientUnits="objectBoundingBox">
      <stop offset="0" stop-color="#ff3a44"/>
      <stop offset="1" stop-color="#c31162"/>
    </linearGradient>
    <linearGradient id="linear-gradient-4" x1="-0.188" y1="-0.128" x2="0.421" y2="0.349" gradientUnits="objectBoundingBox">
      <stop offset="0" stop-color="#32a071"/>
      <stop offset="0.07" stop-color="#2da771"/>
      <stop offset="0.48" stop-color="#15cf74"/>
      <stop offset="0.8" stop-color="#06e775"/>
      <stop offset="1" stop-color="#00f076"/>
    </linearGradient>
  </defs>
  <g id="Groupe_2760" data-name="Groupe 2760" transform="translate(-85.435 -298.108)">
    <g id="badge-googleplay" transform="translate(217.433 298.108)">
      <rect id="Rectangle_831" data-name="Rectangle 831" width="122.711" height="37.025" rx="5.692" transform="translate(0.421 0)"/>
      <path id="Tracé_450" data-name="Tracé 450" d="M118.568.736A3.846,3.846,0,0,1,122.4,4.6V32.181a3.846,3.846,0,0,1-3.83,3.862H4.56A3.846,3.846,0,0,1,.729,32.181V4.6A3.846,3.846,0,0,1,4.559.736H118.567Zm0-.736H4.561A4.579,4.579,0,0,0,0,4.6V32.181a4.579,4.579,0,0,0,4.561,4.6H118.568a4.579,4.579,0,0,0,4.561-4.6V4.6A4.579,4.579,0,0,0,118.568,0Z" transform="translate(0 0.348)"/>
      <path id="Tracé_451" data-name="Tracé 451" d="M71.495,23.916a3.837,3.837,0,1,0,2.77,1.122,3.806,3.806,0,0,0-2.77-1.121Zm0,6.28a2.351,2.351,0,0,1-2.287-1.343,2.387,2.387,0,0,1,.4-2.638,2.34,2.34,0,0,1,2.581-.593,2.372,2.372,0,0,1,1.5,2.2,2.273,2.273,0,0,1-.6,1.652A2.235,2.235,0,0,1,71.495,30.2ZM63,23.917a3.836,3.836,0,1,0,2.76,1.121,3.806,3.806,0,0,0-2.77-1.121H63Zm0,6.28a2.351,2.351,0,0,1-2.294-1.337,2.387,2.387,0,0,1,.394-2.641,2.34,2.34,0,0,1,2.583-.6,2.372,2.372,0,0,1,1.5,2.2,2.273,2.273,0,0,1-.6,1.652,2.235,2.235,0,0,1-1.591.72ZM52.889,25.121v1.655h3.94a3.48,3.48,0,0,1-.911,2.087,4.014,4.014,0,0,1-3.038,1.214,4.414,4.414,0,0,1,0-8.827,4.181,4.181,0,0,1,2.982,1.187l1.159-1.167a5.713,5.713,0,0,0-4.132-1.72,6.017,6.017,0,0,0-5.416,2.966,6.12,6.12,0,0,0,0,6.214A6.017,6.017,0,0,0,52.889,31.7a5.45,5.45,0,0,0,4.2-1.7,5.543,5.543,0,0,0,1.423-3.88,5.44,5.44,0,0,0-.092-1.039l-5.536.046Zm41.326,1.287a3.526,3.526,0,0,0-5.984-1.334,3.7,3.7,0,0,0-.984,2.75,3.842,3.842,0,0,0,1.1,2.778,3.779,3.779,0,0,0,2.748,1.13A3.85,3.85,0,0,0,94.324,30L93,29.084A2.212,2.212,0,0,1,91.1,30.169a1.969,1.969,0,0,1-1.879-1.187l5.189-2.161-.192-.413Zm-5.29,1.306a2.153,2.153,0,0,1,.536-1.569,2.119,2.119,0,0,1,1.488-.712,1.5,1.5,0,0,1,1.441.828ZM84.711,31.5h1.705V20.009H84.71V31.5ZM81.92,24.79h-.064a2.726,2.726,0,0,0-2.043-.919,3.919,3.919,0,0,0,0,7.825,2.636,2.636,0,0,0,2.043-.919h.054v.56c0,1.5-.793,2.3-2.071,2.3a2.144,2.144,0,0,1-1.951-1.388l-1.487.625a3.694,3.694,0,0,0,3.438,2.307c2,0,3.649-1.186,3.649-4.074v-6.96H81.92v.644ZM79.968,30.2a2.383,2.383,0,0,1,0-4.744A2.183,2.183,0,0,1,81.5,26.2a2.222,2.222,0,0,1,.539,1.626,2.2,2.2,0,0,1-.536,1.634,2.164,2.164,0,0,1-1.543.738h.008ZM102.2,20.009H98.127V31.5h1.705V27.144h2.38a3.54,3.54,0,0,0,3.284-1.705,3.6,3.6,0,0,0,0-3.724,3.54,3.54,0,0,0-3.284-1.705H102.2Zm0,5.517h-2.38V21.609h2.417a1.972,1.972,0,0,1,0,3.944l-.036-.027ZM112.72,23.87a3.188,3.188,0,0,0-3.038,1.757l1.515.634a1.611,1.611,0,0,1,1.55-.846,1.633,1.633,0,0,1,1.22.355,1.659,1.659,0,0,1,.6,1.125v.12a3.742,3.742,0,0,0-1.778-.441c-1.633,0-3.284.919-3.284,2.584a2.665,2.665,0,0,0,.884,1.866,2.622,2.622,0,0,0,1.943.662,2.393,2.393,0,0,0,2.189-1.1h.055V31.5h1.641V27.079a3.155,3.155,0,0,0-3.456-3.181Zm-.21,6.3c-.556,0-1.331-.285-1.331-.975,0-.919.967-1.222,1.824-1.222a3.009,3.009,0,0,1,1.551.386,2.068,2.068,0,0,1-2,1.839Zm9.7-6.023-1.951,4.983H120.2l-2.024-4.983H116.35l3.037,6.97-1.733,3.871h1.778l4.67-10.84h-1.9ZM106.873,31.5h1.706V20.009h-1.706Z" transform="translate(-9.347 -3.57)" fill="#fff"/>
      <path id="Tracé_452" data-name="Tracé 452" d="M52.7,11a2.5,2.5,0,0,1-.684,1.839,2.643,2.643,0,0,1-2.007.819,2.874,2.874,0,0,1-2.634-1.794A2.914,2.914,0,0,1,48,8.715a2.725,2.725,0,0,1,2.015-.828,2.8,2.8,0,0,1,1.123.23,2.239,2.239,0,0,1,.857.616l-.483.488a1.817,1.817,0,0,0-1.5-.653,2.108,2.108,0,0,0-1.529.648,2.143,2.143,0,0,0-.6,1.559,2.171,2.171,0,0,0,1.3,2.023,2.14,2.14,0,0,0,2.351-.432,1.751,1.751,0,0,0,.456-1.123H50.015v-.662h2.654a2.394,2.394,0,0,1,.036.414h0Zm4.178-2.3H54.42v1.747h2.243v.662H54.42v1.747h2.463v.68H53.69V8.016h3.193V8.7Zm2.991,4.836h-.7V8.7H57.639v-.68h3.8V8.7H59.873Zm4.25,0V8.016h.7v5.517Zm3.822,0h-.7V8.7H65.711v-.68h3.758V8.7H67.945Zm8.646-.717a2.83,2.83,0,0,1-4.014,0,3,3,0,0,1,0-4.092,2.813,2.813,0,0,1,4.014,0,2.987,2.987,0,0,1,0,4.092h0Zm-3.494-.46a2.095,2.095,0,0,0,2.974,0,2.368,2.368,0,0,0,0-3.163,2.095,2.095,0,0,0-2.974,0,2.368,2.368,0,0,0,0,3.163Zm5.291,1.177V8.016h.857l2.663,4.293V8.016h.7v5.517h-.73L79.1,9.037v4.5Z" transform="translate(-9.455 -1.232)" fill="#fff" stroke="#fff" stroke-width="0.5"/>
      <path id="Tracé_453" data-name="Tracé 453" d="M1.537.6a1.849,1.849,0,0,0-.42,1.287V22.231a1.848,1.848,0,0,0,.42,1.287l.064.064L12.9,12.2v-.266L1.6.541Z" transform="translate(7.986 6.676)" fill="url(#linear-gradient)"/>
      <path id="Tracé_454" data-name="Tracé 454" d="M19.6,17.9l-3.739-3.8v-.266L19.6,10.028l.082.046,4.478,2.566c1.277.727,1.277,1.921,0,2.657L19.7,17.852Z" transform="translate(5.03 4.774)" fill="url(#linear-gradient-2)"/>
      <path id="Tracé_455" data-name="Tracé 455" d="M16.856,18.83l-3.849-3.88L1.643,26.407a1.478,1.478,0,0,0,1.9.055L16.865,18.83" transform="translate(7.879 3.787)" fill="url(#linear-gradient-3)"/>
      <path id="Tracé_456" data-name="Tracé 456" d="M16.853,8.1,3.528.472a1.478,1.478,0,0,0-1.9.055L13,11.984Z" transform="translate(7.882 6.753)" fill="url(#linear-gradient-4)"/>
      <path id="Tracé_457" data-name="Tracé 457" d="M27.013,27.75,13.8,35.335a1.511,1.511,0,0,1-1.823,0l-.064.064.064.065a1.5,1.5,0,0,0,1.823,0l13.326-7.632-.11-.083Z" transform="translate(-2.388 -5.215)" opacity="0.2"/>
      <path id="Tracé_458" data-name="Tracé 458" d="M11.8,34.328a1.849,1.849,0,0,1-.42-1.287v.138a1.85,1.85,0,0,0,.419,1.287l.064-.064-.064-.074ZM31.468,24.2l-4.561,2.6.082.082,4.477-2.556A1.609,1.609,0,0,0,32.38,23a1.709,1.709,0,0,1-.911,1.2Z" transform="translate(-2.281 -4.263)" opacity="0.12"/>
      <path id="Tracé_459" data-name="Tracé 459" d="M13.689,8.654,31.466,18.841a1.705,1.705,0,0,1,.911,1.2,1.609,1.609,0,0,0-.911-1.324L13.689,8.525c-1.277-.726-2.317-.12-2.317,1.351v.138c.027-1.481,1.049-2.087,2.317-1.361Z" transform="translate(-2.28 -1.3)" fill="#fff" opacity="0.25"/>
    </g>
    <g id="badge-appstore" transform="translate(85.435 298.456)">
      <path id="Tracé_460" data-name="Tracé 460" d="M100.623,0H8.711c-.335,0-.666,0-1,0-.28,0-.557.008-.84.012A11.9,11.9,0,0,0,5.041.177,5.867,5.867,0,0,0,1.825,1.852a5.8,5.8,0,0,0-1.077,1.5A6.186,6.186,0,0,0,.177,5.121,12.226,12.226,0,0,0,.014,6.977C.006,7.262,0,7.547,0,7.831V29.267c0,.288.006.567.014.855a12.349,12.349,0,0,0,.164,1.857,6.209,6.209,0,0,0,.571,1.766A5.956,5.956,0,0,0,3.3,36.336a6.047,6.047,0,0,0,1.736.585,12.115,12.115,0,0,0,1.831.164c.283.006.56.01.84.01.334,0,.665,0,1,0h91.912c.328,0,.662,0,.991,0,.278,0,.564,0,.842-.01a11.957,11.957,0,0,0,1.828-.164,6.153,6.153,0,0,0,1.743-.585,5.74,5.74,0,0,0,1.478-1.094,5.924,5.924,0,0,0,1.079-1.5,6.174,6.174,0,0,0,.566-1.766,12.777,12.777,0,0,0,.17-1.856c0-.289,0-.568,0-.855.008-.337.008-.673.008-1.014V8.844c0-.34,0-.677-.008-1.013,0-.285,0-.569,0-.854a12.707,12.707,0,0,0-.17-1.856,6.2,6.2,0,0,0-.566-1.766,5.953,5.953,0,0,0-2.557-2.6,6.12,6.12,0,0,0-1.743-.581,11.745,11.745,0,0,0-1.828-.164c-.278,0-.564-.01-.842-.012C101.285,0,100.952,0,100.623,0Z"/>
      <path id="Tracé_461" data-name="Tracé 461" d="M7.916,36.493c-.278,0-.55,0-.826-.01a11.424,11.424,0,0,1-1.708-.151,5.319,5.319,0,0,1-1.514-.508,5.152,5.152,0,0,1-2.209-2.239,5.366,5.366,0,0,1-.5-1.538,11.69,11.69,0,0,1-.152-1.739c-.006-.2-.014-.847-.014-.847V8.028s.008-.641.013-.83a11.72,11.72,0,0,1,.152-1.737,5.4,5.4,0,0,1,.5-1.542,4.983,4.983,0,0,1,.927-1.3,5.108,5.108,0,0,1,1.282-.949,5.264,5.264,0,0,1,1.511-.5,11.278,11.278,0,0,1,1.713-.152L7.916,1h93.893l.835.012a10.988,10.988,0,0,1,1.7.151,5.368,5.368,0,0,1,1.527.508,5.152,5.152,0,0,1,2.207,2.245,5.4,5.4,0,0,1,.488,1.53,12.124,12.124,0,0,1,.16,1.751c0,.263,0,.545,0,.826.007.348.007.679.007,1.013V28.458c0,.336,0,.666-.008,1,0,.3,0,.578,0,.863a11.988,11.988,0,0,1-.156,1.718,5.383,5.383,0,0,1-.493,1.55,5.081,5.081,0,0,1-.927,1.286,4.949,4.949,0,0,1-1.279.949,5.283,5.283,0,0,1-1.524.51,11.214,11.214,0,0,1-1.708.151c-.267.006-.548.01-.82.01l-.991,0Z" transform="translate(-0.2 -0.201)"/>
      <path id="Tracé_462" data-name="Tracé 462" d="M40.934,26.9H36.608L35.57,29.985H33.739l4.1-11.417h1.9l4.1,11.417H41.971L40.933,26.9Zm-3.878-1.423h3.428l-1.69-5.009h-.047l-1.69,5.008Zm15.624.348c0,2.587-1.376,4.249-3.452,4.249a2.8,2.8,0,0,1-2.6-1.456h-.04v4.123h-1.7V21.661h1.644v1.384h.031A2.93,2.93,0,0,1,49.2,21.573c2.1,0,3.484,1.67,3.484,4.25Zm-1.745,0c0-1.685-.866-2.794-2.186-2.794-1.3,0-2.17,1.131-2.17,2.794,0,1.677.872,2.8,2.17,2.8,1.32,0,2.186-1.1,2.186-2.8Zm10.85,0c0,2.587-1.376,4.249-3.452,4.249a2.8,2.8,0,0,1-2.6-1.456h-.04v4.123h-1.7V21.661h1.644v1.384h.031A2.93,2.93,0,0,1,58.3,21.573c2.1,0,3.483,1.67,3.483,4.25Zm-1.745,0c0-1.685-.866-2.794-2.186-2.794-1.3,0-2.17,1.131-2.17,2.794,0,1.677.872,2.8,2.17,2.8,1.32,0,2.186-1.1,2.186-2.8ZM67.8,26.8c.126,1.132,1.219,1.876,2.713,1.876,1.431,0,2.46-.744,2.46-1.765,0-.887-.62-1.417-2.091-1.781l-1.471-.357c-2.083-.506-3.05-1.487-3.05-3.078,0-1.97,1.706-3.323,4.129-3.323,2.4,0,4.041,1.353,4.1,3.323H72.873c-.1-1.139-1.039-1.827-2.407-1.827s-2.3.7-2.3,1.709c0,.808.6,1.282,2.06,1.645l1.25.309c2.328.554,3.295,1.5,3.295,3.165,0,2.136-1.69,3.474-4.38,3.474-2.516,0-4.214-1.306-4.325-3.372H67.8Zm10.631-7.113v1.97h1.573v1.353H78.432V27.6c0,.713.314,1.045,1.006,1.045a5.023,5.023,0,0,0,.559-.04v1.346a4.634,4.634,0,0,1-.943.079c-1.674,0-2.327-.633-2.327-2.247V23.013h-1.2V21.661h1.2v-1.97h1.706Zm2.483,6.132c0-2.619,1.534-4.265,3.923-4.265s3.924,1.645,3.924,4.265-1.518,4.266-3.924,4.266-3.923-1.639-3.923-4.266Zm6.117,0c0-1.8-.818-2.857-2.194-2.857s-2.193,1.068-2.193,2.857c0,1.8.817,2.857,2.193,2.857S87.033,27.627,87.033,25.823Zm3.13-4.162h1.619v1.417h.04a1.975,1.975,0,0,1,1.989-1.5,2.58,2.58,0,0,1,.581.064v1.6a2.359,2.359,0,0,0-.763-.1,1.705,1.705,0,0,0-1.322.548,1.729,1.729,0,0,0-.447,1.367v4.937h-1.7V21.661Zm12.059,5.879c-.229,1.511-1.691,2.549-3.562,2.549-2.407,0-3.9-1.623-3.9-4.226s1.5-4.3,3.829-4.3c2.288,0,3.727,1.582,3.727,4.106v.586H96.474v.1a2.176,2.176,0,0,0,.584,1.684,2.144,2.144,0,0,0,1.641.674,1.871,1.871,0,0,0,1.911-1.171Zm-5.741-2.484h4.136a2.009,2.009,0,0,0-.556-1.5,1.983,1.983,0,0,0-1.473-.61,2.087,2.087,0,0,0-1.491.616,2.114,2.114,0,0,0-.616,1.5ZM36.843,9.972a2.4,2.4,0,0,1,1.924.752,2.439,2.439,0,0,1,.642,1.975,2.432,2.432,0,0,1-2.566,2.76H34.875V9.972Zm-1.122,4.711h1.027a1.709,1.709,0,0,0,1.366-.556,1.731,1.731,0,0,0,.432-1.418,1.737,1.737,0,0,0-.439-1.407,1.713,1.713,0,0,0-1.358-.555H35.722Zm4.644-1.3a1.965,1.965,0,0,1,.912-1.853,1.939,1.939,0,0,1,2.055,0,1.965,1.965,0,0,1,.913,1.853,1.965,1.965,0,0,1-.911,1.857,1.939,1.939,0,0,1-2.057,0,1.966,1.966,0,0,1-.911-1.857Zm3.045,0c0-.9-.4-1.422-1.1-1.422s-1.1.525-1.1,1.422.4,1.426,1.1,1.426S43.411,14.288,43.411,13.387ZM49.4,15.459h-.842l-.851-3.049h-.064L46.8,15.459h-.834l-1.135-4.14h.824l.737,3.159h.061l.846-3.159h.779l.846,3.159h.064l.734-3.159h.812l-1.13,4.14Zm2.084-4.14h.782v.658h.06a1.231,1.231,0,0,1,1.228-.738,1.334,1.334,0,0,1,1.079.425,1.353,1.353,0,0,1,.345,1.115v2.68h-.812V12.984c0-.665-.287-1-.887-1a.941.941,0,0,0-.731.3.954.954,0,0,0-.252.752v2.423h-.811V11.319ZM56.275,9.7h.812v5.757h-.812V9.7Zm1.94,3.684a1.965,1.965,0,0,1,.913-1.853,1.939,1.939,0,0,1,2.055,0,1.965,1.965,0,0,1,.913,1.853,1.965,1.965,0,0,1-.911,1.857,1.939,1.939,0,0,1-2.058,0A1.966,1.966,0,0,1,58.215,13.387Zm3.045,0c0-.9-.4-1.422-1.1-1.422s-1.1.525-1.1,1.422.4,1.426,1.1,1.426,1.1-.524,1.1-1.426Zm1.69.9c0-.745.552-1.175,1.53-1.236l1.115-.064V12.63c0-.437-.288-.684-.843-.684-.453,0-.768.167-.857.46H63.11c.082-.712.748-1.167,1.681-1.167,1.031,0,1.613.516,1.613,1.391v2.829h-.782v-.581h-.064a1.382,1.382,0,0,1-1.236.65,1.238,1.238,0,0,1-.959-.313,1.254,1.254,0,0,1-.412-.926Zm2.645-.354v-.345l-1.005.064c-.567.038-.824.232-.824.6s.321.59.763.59a.969.969,0,0,0,.724-.225.982.982,0,0,0,.342-.68Zm1.875-.547c0-1.308.668-2.137,1.708-2.137a1.354,1.354,0,0,1,1.262.727H70.5V9.7h.812v5.757h-.778V14.8H70.47a1.427,1.427,0,0,1-1.292.723c-1.047,0-1.708-.829-1.708-2.14Zm.84,0c0,.878.411,1.407,1.1,1.407s1.107-.536,1.107-1.4-.428-1.406-1.107-1.406-1.1.532-1.1,1.4Zm6.362,0a1.965,1.965,0,0,1,.912-1.853,1.939,1.939,0,0,1,2.055,0,1.965,1.965,0,0,1,.913,1.853,1.965,1.965,0,0,1-.911,1.857,1.939,1.939,0,0,1-2.057,0,1.966,1.966,0,0,1-.911-1.857Zm3.045,0c0-.9-.4-1.422-1.1-1.422s-1.1.525-1.1,1.422.4,1.426,1.1,1.426,1.1-.524,1.1-1.426Zm1.924-2.068h.781v.658h.061a1.231,1.231,0,0,1,1.228-.738,1.334,1.334,0,0,1,1.079.425,1.35,1.35,0,0,1,.344,1.115v2.68h-.812V12.984c0-.665-.288-1-.887-1a.941.941,0,0,0-.731.3.954.954,0,0,0-.252.752v2.423h-.812V11.319Zm8.082-1.031v1.051h.891v.688h-.891v2.129c0,.434.178.624.581.624a2.681,2.681,0,0,0,.31-.018v.68a2.571,2.571,0,0,1-.442.042c-.9,0-1.262-.32-1.262-1.118V12.025h-.653v-.688h.653v-1.05h.813Zm2-.584h.8v2.281h.064a1.265,1.265,0,0,1,1.255-.741,1.351,1.351,0,0,1,1.069.436,1.373,1.373,0,0,1,.348,1.107v2.673h-.813V12.988c0-.662-.306-1-.879-1a.956.956,0,0,0-.76.282.974.974,0,0,0-.276.768v2.418h-.812V9.7ZM98,14.341a1.671,1.671,0,0,1-1.783,1.2,1.863,1.863,0,0,1-1.442-.625,1.889,1.889,0,0,1-.459-1.511,1.918,1.918,0,0,1,.458-1.518,1.892,1.892,0,0,1,1.439-.646c1.144,0,1.835.787,1.835,2.087v.285h-2.9v.046a1.1,1.1,0,0,0,.287.837,1.082,1.082,0,0,0,.808.349.984.984,0,0,0,.979-.5Zm-2.856-1.334H97.22a1,1,0,0,0-.27-.762.99.99,0,0,0-.743-.31,1.055,1.055,0,0,0-1.065,1.072Zm-70.228,7.6a4.557,4.557,0,0,1,2.153-3.818,4.621,4.621,0,0,0-3.647-1.984c-1.535-.162-3.022.923-3.8.923-.8,0-2-.907-3.3-.881a4.853,4.853,0,0,0-4.086,2.508c-1.767,3.079-.449,7.6,1.243,10.093.847,1.218,1.837,2.579,3.131,2.531,1.267-.053,1.741-.813,3.27-.813s1.96.813,3.281.783c1.359-.022,2.216-1.224,3.033-2.455a10.106,10.106,0,0,0,1.387-2.843,4.4,4.4,0,0,1-2.666-4.046Zm-2.5-7.438a4.5,4.5,0,0,0,1.019-3.21,4.52,4.52,0,0,0-2.931,1.526,4.28,4.28,0,0,0-1.044,3.09,3.736,3.736,0,0,0,2.957-1.407Z" transform="translate(-2.284 -1.766)" fill="#fff"/>
    </g>
  </g>
</svg>
