<svg id="Groupe_2725" data-name="Groupe 2725" xmlns="http://www.w3.org/2000/svg" width="311.533" height="59.66" viewBox="0 0 311.533 59.66">
  <text id="Créer_votre_cotisation_ou_rejoignez_en_une" data-name="Créer votre cotisation, ou 
rejoignez en une" transform="translate(48.533 22.66)" fill="#707070" font-size="21" font-family="OpenSans-Semibold, Open Sans" font-weight="600"><tspan x="0" y="0">Créer votre cotisation, ou </tspan><tspan x="0" y="31">rejoignez en une</tspan></text>
  <g id="Groupe_2691" data-name="Groupe 2691">
    <path id="Tracé_2" data-name="Tracé 2" d="M1080.523,835.827a14.8,14.8,0,0,1,2.134.155c-.956,1.041-5.111,5.127-14,8.244l-1.554.545-.1.033a14.665,14.665,0,0,1,13.518-8.977Zm7.206,1.891a44.449,44.449,0,0,0-.272-5.272c.733,2.828,1.367,4.945,1.781,6.253a14.667,14.667,0,0,1,4.165,18.8c-.159.292-1.661,2.865-2.667,4.243,2.868-7.641,3.372-14.289-3.007-24.023Zm-26.637,6.361a28.578,28.578,0,0,1,4.875,4.648,14.677,14.677,0,0,0,8.062,14.908,21.7,21.7,0,0,0,.87-2.858,12.778,12.778,0,0,0,.182-5.321,9.386,9.386,0,0,0-2.01-4.191,14.8,14.8,0,0,0-4.365-3.457l-.163-.09-.144-.077a77.3,77.3,0,0,0-7.306-3.563Z" transform="translate(-1061.092 -832.446)" fill="#47890e" fill-rule="evenodd"/>
    <path id="Tracé_3" data-name="Tracé 3" d="M1253.927,967.224q8.68-15.847-4.425-22.778c10.757-3.77,15.055-9.076,15.055-9.076,7.073,6.213,8.916,16.875,5.115,27.556,2.266-10.356.544-20.03-5.046-24.711,0,0-3.032,3.276-10.584,6.552,6.025,4.794,7.056,13.3-.116,22.458Z" transform="translate(-1241.326 -930.903)" fill="#47890e" fill-rule="evenodd"/>
    <path id="Tracé_4" data-name="Tracé 4" d="M1356.781,1025.75c3.981-7.506,2.457-14.214-2.636-18.266,7.551-3.275,10.584-6.552,10.584-6.552,4.931,4.13,6.853,12.146,5.681,21.088q-.118.488-.252.977a14.689,14.689,0,0,1-13.377,2.752Z" transform="translate(-1341.427 -993.62)" fill="#47890e" fill-rule="evenodd" opacity="0.11"/>
    <path id="Intersection_1" data-name="Intersection 1" d="M3.466,7.878a1.489,1.489,0,0,1-1.134-.212A2.221,2.221,0,0,1,1.561,6.61l-.194-.488L2.424,5.7l.222.559a1.037,1.037,0,0,0,.232.377.491.491,0,0,0,.288.141A.681.681,0,0,0,3.5,6.722a.7.7,0,0,0,.282-.189.49.49,0,0,0,.112-.3,1.045,1.045,0,0,0-.09-.433,1.379,1.379,0,0,0-.34-.5,1.842,1.842,0,0,0-.488-.314A4.858,4.858,0,0,0,2.4,4.763c-.2-.064-.412-.133-.62-.207a3.479,3.479,0,0,1-.609-.288,2.281,2.281,0,0,1-.544-.455A2.479,2.479,0,0,1,.2,3.1,2.2,2.2,0,0,1,.036,1.82,1.474,1.474,0,0,1,.69.892L.48.364,1.395,0l.21.529A1.487,1.487,0,0,1,2.729.739,2.212,2.212,0,0,1,3.5,1.791l.089.224-1.057.42L2.41,2.14a.887.887,0,0,0-.361-.484.55.55,0,0,0-.477,0,.55.55,0,0,0-.35.324.885.885,0,0,0,.07.6,1.348,1.348,0,0,0,.342.5,1.785,1.785,0,0,0,.486.315,4.863,4.863,0,0,0,.581.218c.2.062.412.133.62.207a3.471,3.471,0,0,1,.609.288,2.271,2.271,0,0,1,.544.455,2.485,2.485,0,0,1,.423.713,2.21,2.21,0,0,1,.161,1.3,1.5,1.5,0,0,1-.676.932l.206.519L3.672,8.4Z" transform="translate(19.62 13.488)" fill="#47890e" stroke="rgba(0,0,0,0)" stroke-width="1"/>
  </g>
</svg>
