<svg xmlns="http://www.w3.org/2000/svg" width="33.508" height="33.507" viewBox="0 0 33.508 33.507">
  <path id="linkedin" d="M10674-1861.493v-24.2h7.443v24.2Zm26.061,0v-12.772c0-2.966-1.13-5.231-3.722-5.231-1.979,0-2.97,1.6-3.488,2.922a5.091,5.091,0,0,0-.24,1.793v13.288h-7.441v-15.925c0-2.875-.1-5.279-.191-7.356h6.69l.332,3.209h.141a8.279,8.279,0,0,1,7.117-3.725c4.712,0,8.25,3.156,8.25,9.944v13.853ZM10674-1891.181a3.664,3.664,0,0,1,3.722-3.819,3.61,3.61,0,0,1,3.722,3.722,3.527,3.527,0,0,1-3.725,3.678A3.527,3.527,0,0,1,10674-1891.181Z" transform="translate(-10674.002 1895)" fill="#dc8d00"/>
</svg>
