<svg id="menu_1_" data-name="menu (1)" xmlns="http://www.w3.org/2000/svg" width="32.676" height="23.599" viewBox="0 0 32.676 23.599">
  <path id="Tracé_504" data-name="Tracé 504" d="M31.314,125.391H1.361a1.361,1.361,0,0,1,0-2.723H31.314a1.361,1.361,0,0,1,0,2.723Zm0,0" transform="translate(0 -112.23)" fill="#fff"/>
  <path id="Tracé_505" data-name="Tracé 505" d="M31.314,2.723H1.361A1.361,1.361,0,1,1,1.361,0H31.314a1.361,1.361,0,0,1,0,2.723Zm0,0" fill="#fff"/>
  <path id="Tracé_506" data-name="Tracé 506" d="M31.314,248.055H1.361a1.361,1.361,0,1,1,0-2.723H31.314a1.361,1.361,0,1,1,0,2.723Zm0,0" transform="translate(0 -224.456)" fill="#fff"/>
</svg>
