<svg id="badge-googleplay" xmlns="http://www.w3.org/2000/svg" xmlns:xlink="http://www.w3.org/1999/xlink" width="182.774" height="55" viewBox="0 0 182.774 55">
  <defs>
    <linearGradient id="linear-gradient" x1="0.609" y1="0.049" x2="0.269" y2="0.719" gradientUnits="objectBoundingBox">
      <stop offset="0" stop-color="#00a0ff"/>
      <stop offset="0.01" stop-color="#00a1ff"/>
      <stop offset="0.26" stop-color="#00beff"/>
      <stop offset="0.51" stop-color="#00d2ff"/>
      <stop offset="0.76" stop-color="#00dfff"/>
      <stop offset="1" stop-color="#00e3ff"/>
    </linearGradient>
    <linearGradient id="linear-gradient-2" x1="1.077" y1="0.5" x2="-1.306" y2="0.5" gradientUnits="objectBoundingBox">
      <stop offset="0" stop-color="#ffe000"/>
      <stop offset="0.41" stop-color="#ffbd00"/>
      <stop offset="0.78" stop-color="orange"/>
      <stop offset="1" stop-color="#ff9c00"/>
    </linearGradient>
    <linearGradient id="linear-gradient-3" x1="0.862" y1="0.306" x2="-0.502" y2="1.374" gradientUnits="objectBoundingBox">
      <stop offset="0" stop-color="#ff3a44"/>
      <stop offset="1" stop-color="#c31162"/>
    </linearGradient>
    <linearGradient id="linear-gradient-4" x1="-0.188" y1="-0.128" x2="0.421" y2="0.349" gradientUnits="objectBoundingBox">
      <stop offset="0" stop-color="#32a071"/>
      <stop offset="0.07" stop-color="#2da771"/>
      <stop offset="0.48" stop-color="#15cf74"/>
      <stop offset="0.8" stop-color="#06e775"/>
      <stop offset="1" stop-color="#00f076"/>
    </linearGradient>
  </defs>
  <rect id="Rectangle_831" data-name="Rectangle 831" width="182" height="55" rx="5.692" transform="translate(0.774)"/>
  <path id="Tracé_450" data-name="Tracé 450" d="M175.362,1.088A5.688,5.688,0,0,1,181.028,6.8V47.6a5.688,5.688,0,0,1-5.664,5.712H6.744A5.688,5.688,0,0,1,1.078,47.6V6.8A5.688,5.688,0,0,1,6.743,1.088H175.361Zm0-1.088H6.745A6.772,6.772,0,0,0,0,6.8V47.6a6.772,6.772,0,0,0,6.745,6.8H175.362a6.772,6.772,0,0,0,6.745-6.8V6.8A6.772,6.772,0,0,0,175.362,0Z" transform="translate(0)"/>
  <path id="Tracé_451" data-name="Tracé 451" d="M83.407,26.01a5.675,5.675,0,1,0,4.1,1.659,5.629,5.629,0,0,0-4.1-1.658Zm0,9.289a3.477,3.477,0,0,1-3.382-1.987,3.53,3.53,0,0,1,.591-3.9,3.461,3.461,0,0,1,3.817-.877,3.509,3.509,0,0,1,2.211,3.258,3.362,3.362,0,0,1-.885,2.443A3.306,3.306,0,0,1,83.407,35.3ZM70.849,26.011a5.673,5.673,0,1,0,4.082,1.658,5.629,5.629,0,0,0-4.1-1.658Zm0,9.287a3.477,3.477,0,0,1-3.393-1.977,3.531,3.531,0,0,1,.583-3.906,3.461,3.461,0,0,1,3.82-.885,3.509,3.509,0,0,1,2.214,3.259,3.362,3.362,0,0,1-.885,2.443A3.306,3.306,0,0,1,70.835,35.3Zm-14.96-7.507V30.24h5.827a5.146,5.146,0,0,1-1.348,3.086,5.936,5.936,0,0,1-4.494,1.8,6.528,6.528,0,0,1,0-13.055,6.183,6.183,0,0,1,4.411,1.755L62,22.095a8.45,8.45,0,0,0-6.111-2.544,8.9,8.9,0,0,0-8.01,4.387,9.052,9.052,0,0,0,0,9.191,8.9,8.9,0,0,0,8.01,4.387A8.06,8.06,0,0,0,62.108,35a8.2,8.2,0,0,0,2.1-5.739,8.046,8.046,0,0,0-.136-1.537l-8.188.069Zm61.121,1.9a5.215,5.215,0,0,0-8.85-1.974A5.466,5.466,0,0,0,106.7,31.79a5.682,5.682,0,0,0,1.628,4.109A5.589,5.589,0,0,0,112.4,37.57a5.694,5.694,0,0,0,4.775-2.557l-1.956-1.36a3.272,3.272,0,0,1-2.819,1.6,2.913,2.913,0,0,1-2.779-1.755l7.675-3.2-.284-.611Zm-7.824,1.931a3.184,3.184,0,0,1,.793-2.32,3.134,3.134,0,0,1,2.2-1.052,2.223,2.223,0,0,1,2.131,1.224Zm-6.232,5.6h2.522v-17h-2.523v17ZM98.826,27.3h-.095a4.032,4.032,0,0,0-3.021-1.36,5.8,5.8,0,0,0,0,11.573,3.9,3.9,0,0,0,3.021-1.36h.08v.829c0,2.216-1.173,3.4-3.063,3.4a3.172,3.172,0,0,1-2.885-2.053l-2.2.925a5.463,5.463,0,0,0,5.085,3.413c2.956,0,5.4-1.754,5.4-6.025V26.35h-2.32V27.3Zm-2.887,8a3.525,3.525,0,0,1,0-7.017,3.228,3.228,0,0,1,2.265,1.1A3.286,3.286,0,0,1,99,31.79a3.253,3.253,0,0,1-.792,2.417A3.2,3.2,0,0,1,95.926,35.3h.012Zm32.886-15.068H122.8v17h2.522V30.784h3.52a5.235,5.235,0,0,0,4.857-2.522,5.327,5.327,0,0,0,0-5.508,5.235,5.235,0,0,0-4.857-2.522h-.013Zm0,8.159H125.3V22.6h3.575a2.917,2.917,0,0,1,0,5.833l-.053-.04Zm15.555-2.448a4.715,4.715,0,0,0-4.494,2.6l2.241.938a2.383,2.383,0,0,1,2.293-1.251,2.415,2.415,0,0,1,1.8.525,2.454,2.454,0,0,1,.893,1.664v.177a5.534,5.534,0,0,0-2.63-.653c-2.415,0-4.857,1.36-4.857,3.822a3.942,3.942,0,0,0,1.308,2.76,3.879,3.879,0,0,0,2.873.979,3.539,3.539,0,0,0,3.238-1.632h.082v1.36h2.428V30.688c0-2.978-2.24-4.705-5.112-4.705Zm-.311,9.316c-.823,0-1.969-.422-1.969-1.443,0-1.36,1.43-1.808,2.7-1.808a4.45,4.45,0,0,1,2.294.571,3.058,3.058,0,0,1-2.955,2.72Zm14.339-8.908-2.885,7.371h-.083l-2.994-7.371h-2.7l4.491,10.308-2.563,5.725h2.63l6.907-16.033h-2.806ZM135.732,37.23h2.523v-17h-2.523Z" transform="translate(8.51 3.567)" fill="#fff"/>
  <path id="Tracé_452" data-name="Tracé 452" d="M55.359,12.487a3.7,3.7,0,0,1-1.012,2.72,3.909,3.909,0,0,1-2.968,1.211,4.25,4.25,0,0,1-3.9-2.654,4.309,4.309,0,0,1,.915-4.65,4.03,4.03,0,0,1,2.98-1.224,4.136,4.136,0,0,1,1.66.341,3.311,3.311,0,0,1,1.268.911l-.714.721A2.688,2.688,0,0,0,51.38,8.9a3.117,3.117,0,0,0-2.261.958,3.169,3.169,0,0,0-.882,2.306,3.211,3.211,0,0,0,1.919,2.992,3.164,3.164,0,0,0,3.477-.639,2.59,2.59,0,0,0,.674-1.66H51.381v-.979h3.926a3.541,3.541,0,0,1,.053.613h0Zm6.179-3.4H57.9v2.584h3.318v.979H57.9v2.584h3.642V16.24H56.816V8.081h4.722Zm4.424,7.153H64.923V9.087H62.656V8.081h5.625V9.087h-2.32Zm6.286,0V8.081h1.038V16.24Zm5.652,0H76.861V9.087H74.595V8.081h5.558V9.087H77.9Zm12.788-1.061a4.185,4.185,0,0,1-5.936,0,4.432,4.432,0,0,1,0-6.052,4.16,4.16,0,0,1,5.936,0,4.418,4.418,0,0,1,0,6.052h0ZM85.52,14.5a3.1,3.1,0,0,0,4.4,0,3.5,3.5,0,0,0,0-4.678,3.1,3.1,0,0,0-4.4,0,3.5,3.5,0,0,0,0,4.678Zm7.825,1.741V8.081h1.268l3.939,6.35V8.081h1.039V16.24h-1.08L94.4,9.591V16.24H93.345Z" transform="translate(8.608 1.439)" fill="#fff" stroke="#fff" stroke-width="0.5"/>
  <path id="Tracé_453" data-name="Tracé 453" d="M1.74.636a2.734,2.734,0,0,0-.621,1.9V32.62a2.733,2.733,0,0,0,.621,1.9l.095.095L18.547,17.783v-.394L1.834.541Z" transform="translate(12.344 9.618)" fill="url(#linear-gradient)"/>
  <path id="Tracé_454" data-name="Tracé 454" d="M21.387,21.669l-5.531-5.617v-.394l5.531-5.63.122.067,6.623,3.795c1.888,1.075,1.888,2.842,0,3.929l-6.6,3.781-.149.069Z" transform="translate(15.035 11.35)" fill="url(#linear-gradient-2)"/>
  <path id="Tracé_455" data-name="Tracé 455" d="M24.143,20.689,18.45,14.95,1.643,31.894a2.185,2.185,0,0,0,2.8.082L24.157,20.689" transform="translate(12.441 12.248)" fill="url(#linear-gradient-3)"/>
  <path id="Tracé_456" data-name="Tracé 456" d="M24.145,11.912,4.437.625A2.185,2.185,0,0,0,1.631.706L18.452,17.65Z" transform="translate(12.439 9.547)" fill="url(#linear-gradient-4)"/>
  <path id="Tracé_457" data-name="Tracé 457" d="M34.248,27.75,14.7,38.969a2.235,2.235,0,0,1-2.7,0l-.095.095.095.1a2.224,2.224,0,0,0,2.7,0L34.41,27.872l-.162-.123Z" transform="translate(2.174 5.065)" opacity="0.2"/>
  <path id="Tracé_458" data-name="Tracé 458" d="M12.007,39.754a2.734,2.734,0,0,1-.621-1.9v.2a2.736,2.736,0,0,0,.62,1.9l.095-.095-.095-.109ZM41.089,24.768l-6.745,3.849.122.122,6.622-3.781A2.379,2.379,0,0,0,42.439,23a2.527,2.527,0,0,1-1.348,1.768Z" transform="translate(2.077 4.198)" opacity="0.12"/>
  <path id="Tracé_459" data-name="Tracé 459" d="M14.8,8.862,41.091,23.93A2.522,2.522,0,0,1,42.439,25.7a2.379,2.379,0,0,0-1.348-1.958L14.8,8.672c-1.888-1.074-3.427-.177-3.427,2v.2c.04-2.19,1.551-3.086,3.427-2.013Z" transform="translate(2.076 1.5)" fill="#fff" opacity="0.25"/>
</svg>
